<svg xmlns="http://www.w3.org/2000/svg" x="0px" y="0px"
width="32" height="32"
viewBox="0 0 172 172"
style=" fill:#000000;"><g fill="none" fill-rule="nonzero" stroke="none" stroke-width="1" stroke-linecap="butt" stroke-linejoin="miter" stroke-miterlimit="10" stroke-dasharray="" stroke-dashoffset="0" font-family="none" font-weight="none" font-size="none" text-anchor="none" style="mix-blend-mode: normal"><path d="M0,172v-172h172v172z" fill="none"></path><g fill="#65d977"><path d="M79.12,24.08c-29.15937,0 -48.805,3.44 -48.805,3.44c-1.89469,0.34938 -3.15781,2.19031 -2.795,4.085c0.34938,1.89469 2.19031,3.15781 4.085,2.795c0,0 2.60688,-0.37625 6.235,-0.86v28.38h-17.2v6.88h17.2v13.8675c7.21594,0.33594 14.60656,1.14219 21.8225,2.4725c-1.35719,-4.23281 -3.17125,-9.63469 -4.8375,-14.0825c-2.20375,-5.83187 -6.83969,-7.955 -10.105,-8.7075v-29.67c8.29094,-0.86 20.14281,-1.72 34.4,-1.72c10.79031,0 20.19656,0.47031 27.735,1.075c0.02688,0.1075 0.06719,0.215 0.1075,0.3225l23.435,53.6425l-12.255,27.52h-28.7025v-5.9125c0,-3.88344 -2.48594,-7.26969 -6.45,-8.815c-16.11156,-6.31562 -37.39656,-9.91687 -55.5775,-9.3525c-6.02,0.18813 -10.15875,1.54531 -12.685,4.1925c-6.90687,7.22938 -7.8475,19.33656 -7.8475,30.2075c0,1.89469 1.54531,3.44 3.44,3.44h3.7625c-0.22844,1.11531 -0.3225,2.2575 -0.3225,3.44c0,9.48688 7.71313,17.2 17.2,17.2c8.30438,0 15.27844,-5.92594 16.8775,-13.76h83.205c1.59906,7.83406 8.57313,13.76 16.8775,13.76c9.48688,0 17.2,-7.71312 17.2,-17.2c0,-0.77937 -0.12094,-1.505 -0.215,-2.2575c0.12094,-0.36281 0.215,-0.77937 0.215,-1.1825v-20.64c0,-0.28219 -0.04031,-0.59125 -0.1075,-0.86c-2.96969,-11.89219 -23.38125,-20.5325 -28.2725,-22.4675l-22.145,-50.525c7.53844,0.81969 12.04,1.6125 12.04,1.6125c1.89469,0.36281 3.73563,-0.90031 4.085,-2.795c0.36281,-1.89469 -0.90031,-3.73562 -2.795,-4.085c0,0 -19.64562,-3.44 -48.805,-3.44zM106.21,55.04c-0.76594,0.08063 -1.49156,0.43 -2.0425,0.9675l-13.76,13.76c-1.37062,1.37063 -1.37062,3.57438 0,4.945c1.37063,1.37063 3.57438,1.37063 4.945,0l4.4075,-4.4075l20.855,20.7475l3.01,-6.7725l-18.92,-18.92l4.4075,-4.4075c1.11531,-1.03469 1.41094,-2.67406 0.73906,-4.03125c-0.65844,-1.37062 -2.15,-2.12312 -3.64156,-1.88125zM30.96,120.4c5.68406,0 10.32,4.63594 10.32,10.32c0,5.68406 -4.63594,10.32 -10.32,10.32c-5.68406,0 -10.32,-4.63594 -10.32,-10.32c0,-5.68406 4.63594,-10.32 10.32,-10.32zM147.92,120.4c5.68406,0 10.32,4.63594 10.32,10.32c0,5.68406 -4.63594,10.32 -10.32,10.32c-5.68406,0 -10.32,-4.63594 -10.32,-10.32c0,-5.68406 4.63594,-10.32 10.32,-10.32z"></path></g></g></svg>