<svg xmlns="http://www.w3.org/2000/svg" x="0px" y="0px"
width="32" height="32"
viewBox="0 0 172 172"
style=" fill:#000000;"><g fill="none" fill-rule="nonzero" stroke="none" stroke-width="1" stroke-linecap="butt" stroke-linejoin="miter" stroke-miterlimit="10" stroke-dasharray="" stroke-dashoffset="0" font-family="none" font-weight="none" font-size="none" text-anchor="none" style="mix-blend-mode: normal"><path d="M0,172v-172h172v172z" fill="none"></path><g fill="#65d977"><path d="M89.58333,0c-9.88216,0 -17.91667,8.03451 -17.91667,17.91667c0,9.88216 8.03451,17.91667 17.91667,17.91667c9.88216,0 17.91667,-8.03451 17.91667,-17.91667c0,-9.88216 -8.03451,-17.91667 -17.91667,-17.91667zM107.5,0c2.1556,1.42774 7.16667,7.92253 7.16667,17.24479v0.67188c6.43881,6.43881 9.35026,13.60547 10.07813,17.91667l-22.17187,8.51042h-0.89583l-4.92708,2.23958c-5.73893,2.1556 -8.65039,9.26628 -6.49479,15.00521l15.00521,38.07292l1.56771,27.99479l-14.33333,32.25c-2.1556,4.3112 -0.05599,9.26628 4.25521,11.42188c4.3112,2.1556 9.93815,0.05599 12.09375,-4.25521l15.90104,-35.83333l4.92708,-33.14583c0.72787,-5.73893 0.81185,-11.2819 -1.34375,-17.02083l-8.73437,-27.99479l14.33333,-6.49479c2.1556,-2.1556 4.3112,-4.33919 3.58333,-6.49479c-6.4388,-22.92774 -17.83268,-35.07747 -30.01042,-40.08854zM57.33333,3.58333c0,0 -35.83333,8.5944 -43,53.75l22.17188,-10.07812c-2.1556,-34.4056 20.82813,-43.67187 20.82813,-43.67187zM75.92188,42.32813l-51.51042,19.93229c-7.16667,2.85547 -10.69401,10.80599 -7.83854,17.24479l2.01563,5.15104c2.85547,7.16667 10.07813,9.99414 17.24479,7.83854c1.42774,-0.72786 2.07162,-2.1556 1.34375,-3.58333l-7.16667,-14.33333c-0.72786,-2.1556 0.13997,-4.42317 1.56771,-5.15104l47.92708,-19.26042zM135.49479,104.58854l-5.15104,31.57813l11.64583,30.90625c1.42774,4.3112 6.43881,6.35482 10.75,4.92708c4.3112,-1.42774 6.35482,-6.4388 4.92708,-10.75z"></path></g></g></svg>