<?xml version="1.0" standalone="no"?><svg xmlns="http://www.w3.org/2000/svg" viewBox="0 0 1440 320"><path fill="#e3f7dc" fill-opacity="1" d="M0,0L17.1,5.3C34.3,11,69,21,103,32C137.1,43,171,53,206,48C240,43,274,21,309,26.7C342.9,32,377,64,411,112C445.7,160,480,224,514,240C548.6,256,583,224,617,202.7C651.4,181,686,171,720,176C754.3,181,789,203,823,181.3C857.1,160,891,96,926,69.3C960,43,994,53,1029,80C1062.9,107,1097,149,1131,165.3C1165.7,181,1200,171,1234,170.7C1268.6,171,1303,181,1337,202.7C1371.4,224,1406,256,1423,272L1440,288L1440,320L1422.9,320C1405.7,320,1371,320,1337,320C1302.9,320,1269,320,1234,320C1200,320,1166,320,1131,320C1097.1,320,1063,320,1029,320C994.3,320,960,320,926,320C891.4,320,857,320,823,320C788.6,320,754,320,720,320C685.7,320,651,320,617,320C582.9,320,549,320,514,320C480,320,446,320,411,320C377.1,320,343,320,309,320C274.3,320,240,320,206,320C171.4,320,137,320,103,320C68.6,320,34,320,17,320L0,320Z"></path></svg>